<svg width="24" height="24" viewBox="0 0 24 24" fill="none" xmlns="http://www.w3.org/2000/svg">
<path d="M20.2458 15.8406V20.7891C19.706 20.7855 18.7017 20.6059 17.9267 19.4656C17.4442 18.7559 16.2751 18.6738 15.4376 18.6738L15.2657 18.6742C14.247 18.6742 13.2489 18.2246 12.5888 17.4957H17.2063C17.3681 17.4957 17.4993 17.3645 17.4993 17.2027V12.2992C18.6392 12.4125 18.7415 13.2648 18.7415 15.5477C18.7415 15.7098 18.8724 15.8406 19.0345 15.8406H20.2458ZM6.78643 17.4957C6.62471 17.4957 6.49346 17.3645 6.49346 17.2027V12.3C5.36064 12.4168 5.25869 13.2699 5.25869 15.5477C5.25869 15.7098 5.12783 15.8406 4.96572 15.8406H3.75439V20.7891C4.29424 20.7855 5.29854 20.6059 6.07354 19.4656C6.55596 18.7559 7.7251 18.6738 8.56299 18.6738L8.73447 18.6742C9.75322 18.6742 10.7513 18.2246 11.4114 17.4957H6.78643ZM10.9536 8.40195V11.3988L11.8251 10.7715C11.875 10.7353 11.935 10.7159 11.9966 10.716C12.0563 10.716 12.1165 10.7344 12.1677 10.7715L13.0392 11.3988V8.40195H10.9536ZM13.6251 8.40195V11.9711C13.6251 12.0809 13.5638 12.1816 13.4657 12.2316C13.4178 12.2563 13.3639 12.2672 13.3101 12.2632C13.2563 12.2591 13.2047 12.2402 13.161 12.2086L11.9966 11.3703L10.8317 12.2086C10.782 12.2446 10.7221 12.264 10.6606 12.2641C10.6149 12.2641 10.5692 12.2531 10.5271 12.2316C10.479 12.2071 10.4388 12.1698 10.4106 12.1238C10.3825 12.0779 10.3676 12.025 10.3677 11.9711V8.40195H7.07939L7.08682 16.9098H16.9134V8.40195H13.6251ZM10.3904 5.06371C10.3904 4.04219 11.1109 3.21109 11.9964 3.21109C12.8819 3.21109 13.6023 4.04215 13.6023 5.06371C13.6023 6.08527 12.8819 6.91633 11.9964 6.91633C11.1109 6.91629 10.3904 6.08523 10.3904 5.06371ZM10.9764 5.06371C10.9764 5.76215 11.434 6.33039 11.9964 6.33039C12.5588 6.33039 13.0164 5.76215 13.0164 5.06371C13.0164 4.36527 12.5588 3.79703 11.9964 3.79703C11.434 3.79703 10.9764 4.36527 10.9764 5.06371ZM14.5262 6.6168V3.50391C14.5262 3.34207 14.6573 3.21094 14.8191 3.21094H15.6988C16.6916 3.21094 17.4993 4.04207 17.4993 5.06371C17.4993 6.02852 16.796 6.82164 15.8635 6.90855C15.8545 6.90938 15.8454 6.9098 15.8363 6.9098H14.8191C14.7806 6.9098 14.7425 6.90223 14.707 6.8875C14.6714 6.87277 14.6392 6.85119 14.6119 6.82398C14.5847 6.79677 14.5632 6.76447 14.5484 6.72892C14.5337 6.69337 14.5261 6.65527 14.5262 6.6168ZM15.1121 6.32383H15.822C16.435 6.25973 16.9133 5.70883 16.9133 5.06367C16.9133 4.36516 16.3685 3.79684 15.6988 3.79684H15.1121V6.32383ZM8.12557 6.91629C8.634 6.91629 9.10412 6.6552 9.41545 6.2C9.4593 6.13586 9.47589 6.05694 9.46155 5.98057C9.44722 5.90421 9.40313 5.83667 9.339 5.79281C9.30725 5.77109 9.27152 5.75584 9.23387 5.74792C9.19622 5.74001 9.15737 5.73959 9.11956 5.74669C9.08174 5.75379 9.0457 5.76827 9.01348 5.7893C8.98126 5.81033 8.9535 5.8375 8.93178 5.86926C8.73139 6.16227 8.43752 6.33035 8.12557 6.33035C7.54869 6.33035 7.07939 5.76211 7.07939 5.06367C7.07939 4.36523 7.54873 3.79699 8.12557 3.79699C8.43748 3.79699 8.73135 3.96504 8.93174 4.25805C8.95346 4.2898 8.98122 4.31697 9.01344 4.338C9.04566 4.35902 9.08171 4.3735 9.11953 4.38059C9.15734 4.38769 9.19618 4.38726 9.23383 4.37935C9.27149 4.37143 9.30721 4.35618 9.33896 4.33445C9.40308 4.29057 9.44715 4.22302 9.46148 4.14666C9.47581 4.07029 9.45922 3.99137 9.41537 3.92723C9.10404 3.47211 8.63396 3.21105 8.12557 3.21105C7.22561 3.21105 6.49346 4.04211 6.49346 5.06367C6.49346 6.08523 7.22564 6.91629 8.12557 6.91629Z" fill="#D23B30"/>
</svg>
