<svg width="40" height="40" viewBox="0 0 40 40" fill="none" xmlns="http://www.w3.org/2000/svg">
<path d="M22.069 37.2414H38.6207V13.1034H22.069V37.2414ZM24.1379 14.4828H25.5172V24.1379H24.1379V14.4828ZM22.069 0V11.7241H38.6207V0H22.069ZM25.5172 10.3448H24.1379V3.44828H25.5172V10.3448ZM0 37.2414H17.931V20H0V37.2414ZM8.96552 20.6897C13.1553 20.6897 16.5517 24.086 16.5517 28.2759C16.5517 32.4657 13.1553 35.8621 8.96552 35.8621C4.77569 35.8621 1.37931 32.4657 1.37931 28.2759C1.3844 24.0881 4.77776 20.6947 8.96552 20.6897ZM0 18.6207H17.931V14.4828H0V18.6207ZM12.4138 15.8621H16.5517V17.2414H12.4138V15.8621ZM6.89655 15.8621H8.27586V17.2414H6.89655V15.8621ZM4.13793 15.8621H5.51724V17.2414H4.13793V15.8621ZM1.37931 15.8621H2.75862V17.2414H1.37931V15.8621Z" fill="#175CD3"/>
<path d="M11.7241 30.0593L13.8103 32.1454C15.6264 29.8855 15.6264 26.6662 13.8103 24.4062L11.7241 26.4925V30.0593Z" fill="#175CD3"/>
<path d="M8.96553 34.4831C10.373 34.4837 11.7383 34.0031 12.8351 33.121L11.8532 32.1382C9.86165 33.6321 7.06053 33.3661 5.38527 31.5245C3.71027 29.6827 3.71027 26.8696 5.38527 25.0279C7.06053 23.1863 9.86165 22.9202 11.8531 24.4141L12.835 23.4321C10.7075 21.7275 7.71656 21.611 5.46268 23.1449C3.20854 24.6784 2.21958 27.5037 3.02432 30.1084C3.8288 32.7132 6.23923 34.4877 8.96553 34.4831Z" fill="#175CD3"/>
<path d="M10.5469 25.7195L10.8667 25.3996C9.42688 24.4476 7.50507 24.7072 6.36886 26.0067C5.233 27.3062 5.233 29.2459 6.36886 30.5453C7.50507 31.8448 9.42688 32.1045 10.8668 31.1525L10.5469 30.8327C10.4175 30.7033 10.3448 30.5279 10.3448 30.345V26.2071C10.3448 26.0242 10.4176 25.8488 10.5469 25.7195ZM2.75861 2.75879H9.65516V7.58637H2.75861V2.75879Z" fill="#175CD3"/>
<path d="M12.4138 0H0V10.3448H12.4138V0ZM11.0345 8.27586C11.0345 8.45877 10.9618 8.63419 10.8325 8.76352C10.7032 8.89286 10.5277 8.96552 10.3448 8.96552H2.06897C1.88606 8.96552 1.71064 8.89286 1.58131 8.76352C1.45197 8.63419 1.37931 8.45877 1.37931 8.27586V2.06897C1.37931 1.88606 1.45197 1.71064 1.58131 1.58131C1.71064 1.45197 1.88606 1.37931 2.06897 1.37931H10.3448C10.5277 1.37931 10.7032 1.45197 10.8325 1.58131C10.9618 1.71064 11.0345 1.88606 11.0345 2.06897V8.27586ZM13.7931 10.3448H17.931V0H13.7931V10.3448ZM15.1724 1.37931H16.5517V2.75862H15.1724V1.37931ZM15.1724 4.13793H16.5517V5.51724H15.1724V4.13793ZM15.8621 7.24138C16.4335 7.24138 16.8966 7.7044 16.8966 8.27586C16.8966 8.84733 16.4335 9.31034 15.8621 9.31034C15.2906 9.31034 14.8276 8.84733 14.8276 8.27586C14.8276 7.7044 15.2906 7.24138 15.8621 7.24138ZM0 38.6207H1.37931V40H0V38.6207ZM16.5517 38.6207H17.931V40H16.5517V38.6207ZM22.069 38.6207H23.4483V40H22.069V38.6207ZM37.2414 38.6207H38.6207V40H37.2414V38.6207Z" fill="#175CD3"/>
</svg>
