<svg width="24" height="24" viewBox="0 0 24 24" fill="none" xmlns="http://www.w3.org/2000/svg">
<path d="M12 21.75C10.0716 21.75 8.18657 21.1782 6.58319 20.1068C4.97982 19.0355 3.73013 17.5127 2.99218 15.7312C2.25422 13.9496 2.06114 11.9892 2.43735 10.0979C2.81355 8.20656 3.74215 6.46928 5.10571 5.10571C6.46928 3.74215 8.20656 2.81355 10.0979 2.43735C11.9892 2.06114 13.9496 2.25422 15.7312 2.99218C17.5127 3.73013 19.0355 4.97982 20.1068 6.58319C21.1782 8.18657 21.75 10.0716 21.75 12C21.747 14.585 20.7188 17.0632 18.891 18.891C17.0632 20.7188 14.585 21.747 12 21.75ZM12 3.75C10.3683 3.75 8.77326 4.23386 7.41655 5.14038C6.05984 6.0469 5.00242 7.33538 4.378 8.84287C3.75358 10.3504 3.5902 12.0092 3.90853 13.6095C4.22685 15.2098 5.01259 16.6799 6.16637 17.8336C7.32016 18.9874 8.79017 19.7732 10.3905 20.0915C11.9909 20.4098 13.6497 20.2464 15.1571 19.622C16.6646 18.9976 17.9531 17.9402 18.8596 16.5835C19.7661 15.2268 20.25 13.6317 20.25 12C20.2474 9.81276 19.3774 7.71584 17.8308 6.16922C16.2842 4.62261 14.1872 3.75258 12 3.75Z" fill="#828282"/>
<path d="M12 15C11.8011 15 11.6103 14.921 11.4697 14.7803C11.329 14.6397 11.25 14.4489 11.25 14.25C11.2981 13.7785 11.4422 13.3219 11.6735 12.9082C11.9048 12.4946 12.2183 12.1327 12.5947 11.8448C13.0605 11.379 13.5 10.9395 13.5 10.5C13.5 10.1022 13.342 9.72064 13.0607 9.43934C12.7794 9.15804 12.3978 9 12 9C11.6022 9 11.2206 9.15804 10.9393 9.43934C10.658 9.72064 10.5 10.1022 10.5 10.5C10.5 10.6989 10.421 10.8897 10.2803 11.0303C10.1397 11.171 9.94891 11.25 9.75 11.25C9.55109 11.25 9.36032 11.171 9.21967 11.0303C9.07902 10.8897 9 10.6989 9 10.5C9 9.70435 9.31607 8.94129 9.87868 8.37868C10.4413 7.81607 11.2044 7.5 12 7.5C12.7956 7.5 13.5587 7.81607 14.1213 8.37868C14.6839 8.94129 15 9.70435 15 10.5C14.9519 10.9715 14.8078 11.4281 14.5765 11.8418C14.3452 12.2554 14.0317 12.6173 13.6553 12.9053C13.1895 13.371 12.75 13.8105 12.75 14.25C12.75 14.4489 12.671 14.6397 12.5303 14.7803C12.3897 14.921 12.1989 15 12 15Z" fill="#828282"/>
<path d="M12 17.25C12.4142 17.25 12.75 16.9142 12.75 16.5C12.75 16.0858 12.4142 15.75 12 15.75C11.5858 15.75 11.25 16.0858 11.25 16.5C11.25 16.9142 11.5858 17.25 12 17.25Z" fill="#828282"/>
</svg>
