<svg width="40" height="40" viewBox="0 0 40 40" fill="none" xmlns="http://www.w3.org/2000/svg">
<g clip-path="url(#clip0_816_6133)">
<path d="M5.00462 30.3881L4.63011 31.8869C4.49055 32.4451 4.61355 33.0246 4.96756 33.478C5.32157 33.9313 5.85456 34.1915 6.42933 34.1915C7.28164 34.1915 8.02198 33.6136 8.22856 32.7865L8.82383 30.407H5.49266C5.32867 30.407 5.16546 30.4007 5.00462 30.3881ZM34.9954 30.3881C34.8345 30.4007 34.6713 30.407 34.5073 30.407H31.1769L31.7714 32.7865C31.8713 33.188 32.1028 33.5445 32.4289 33.7991C32.7549 34.0538 33.1569 34.1919 33.5706 34.1915C34.1454 34.1915 34.6784 33.9313 35.0324 33.478C35.3864 33.0246 35.5094 32.4451 35.3699 31.8869L34.9954 30.3881ZM3.67925 12.7617C5.68583 12.928 7.37704 14.4135 7.77757 16.4145L8.74814 21.2682C8.85694 21.8122 9.33868 22.2072 9.89374 22.2072H30.1062C30.6613 22.2072 31.143 21.8122 31.2518 21.2682L32.2224 16.4145C32.5946 14.5546 34.0823 13.1401 35.9013 12.8161L36.0598 11.9299C36.331 10.409 35.9178 8.85731 34.926 7.67228C33.9341 6.48725 32.4787 5.80762 30.9333 5.80762H8.63066C7.05062 5.80762 5.57466 6.51248 4.58123 7.74088C3.58779 8.97006 3.20776 10.5611 3.53891 12.1057L3.67925 12.7617Z" fill="#373737"/>
<path d="M39.1092 15.0536C38.4871 14.3887 37.6081 14.0073 36.6975 14.0073C36.3367 14.0073 35.987 14.0671 35.6583 14.1768L35.6584 14.1761C34.5514 14.5386 33.6802 15.5169 33.4592 16.6621L32.4886 21.5154C32.2622 22.6471 31.2602 23.4686 30.106 23.4686H9.89399C8.73979 23.4686 7.73776 22.6472 7.5114 21.5154L6.54075 16.6621C6.29728 15.3838 5.23698 14.3237 3.96073 14.0744L3.96081 14.0747C2.85565 13.8402 1.65872 14.2248 0.890774 15.0536C0.268693 15.7186 -0.053385 16.621 0.00716735 17.5295L0.446645 24.1211C0.458235 26.8343 2.62266 29.0478 5.31637 29.1409L5.31606 29.1423C5.3744 29.1446 5.43354 29.1454 5.49267 29.1454H34.5073C34.5665 29.1454 34.6256 29.1446 34.6839 29.1423L34.6836 29.1409C37.3773 29.0478 39.5418 26.8343 39.5533 24.1211L39.9927 17.5295C40.0533 16.621 39.7313 15.7185 39.1092 15.0536Z" fill="#373737"/>
</g>
<defs>
<clipPath id="clip0_816_6133">
<rect width="40" height="40" fill="white"/>
</clipPath>
</defs>
</svg>
