<svg width="22" height="22" viewBox="0 0 22 22" fill="none" xmlns="http://www.w3.org/2000/svg">
<path d="M2.19803 14.4643L2.67453 14.3128L2.19803 14.4643ZM1.13937 8.45481L1.62101 8.58905L1.13937 8.45481ZM5.56008 3.8893L5.262 3.48787L5.56008 3.8893ZM1.24737 8.11512L1.7181 8.28368L1.24737 8.11512ZM5.08054 20.172L4.79749 20.5841L5.08054 20.172ZM4.7978 19.962L4.48512 20.3522L4.7978 19.962ZM19.802 14.4643L19.3255 14.3128L19.802 14.4643ZM17.2022 19.962L17.5149 20.3522L17.2022 19.962ZM16.9195 20.172L17.2025 20.5841L16.9195 20.172ZM16.4399 3.8893L16.738 3.48787L16.4399 3.8893ZM20.7526 8.11512L20.2819 8.28368L20.7526 8.11512ZM20.8606 8.45481L20.379 8.58905L20.8606 8.45481ZM11.1747 1.00327L11.156 1.50292L11.1747 1.00327ZM10.8253 1.00327L10.844 1.50292L10.8253 1.00327ZM9.09338 15.9129C8.81723 15.9129 8.59338 16.1367 8.59338 16.4129C8.59338 16.689 8.81723 16.9129 9.09338 16.9129V15.9129ZM12.9066 16.9129C13.1828 16.9129 13.4066 16.689 13.4066 16.4129C13.4066 16.1367 13.1828 15.9129 12.9066 15.9129V16.9129ZM2.67453 14.3128C2.18576 12.7755 1.83161 11.6594 1.64514 10.7492C1.46096 9.8503 1.45114 9.19856 1.62101 8.58905L0.657728 8.32057C0.429647 9.13893 0.463623 9.96471 0.665489 10.95C0.865063 11.924 1.23922 13.0987 1.72153 14.6158L2.67453 14.3128ZM5.262 3.48787C3.99958 4.42525 3.02038 5.15148 2.2979 5.82038C1.56649 6.49753 1.06308 7.14664 0.776639 7.94656L1.7181 8.28368C1.93091 7.68938 2.31271 7.16944 2.97726 6.55417C3.65074 5.93065 4.57828 5.24108 5.85816 4.29074L5.262 3.48787ZM1.62101 8.58905C1.64972 8.48607 1.6821 8.38421 1.7181 8.28368L0.776639 7.94656C0.732536 8.06972 0.692874 8.19447 0.657728 8.32057L1.62101 8.58905ZM11 20.5C9.41767 20.5 8.2715 20.4993 7.36894 20.3995C6.47865 20.3011 5.87405 20.1103 5.36359 19.7598L4.79749 20.5841C5.49279 21.0616 6.27669 21.2849 7.25907 21.3935C8.22919 21.5007 9.43987 21.5 11 21.5V20.5ZM1.72153 14.6158C2.20382 16.1328 2.57676 17.308 2.97559 18.2161C3.37888 19.1343 3.82711 19.8249 4.48512 20.3522L5.11047 19.5718C4.62533 19.1831 4.25921 18.6519 3.89117 17.814C3.51867 16.9658 3.16331 15.8502 2.67453 14.3128L1.72153 14.6158ZM5.36359 19.7598C5.27702 19.7003 5.19259 19.6377 5.11047 19.5718L4.48512 20.3522C4.58642 20.4334 4.69061 20.5107 4.79749 20.5841L5.36359 19.7598ZM19.3255 14.3128C18.8367 15.8502 18.4813 16.9658 18.1088 17.814C17.7408 18.6519 17.3747 19.1831 16.8895 19.5718L17.5149 20.3522C18.1729 19.8249 18.6211 19.1343 19.0244 18.2161C19.4232 17.308 19.7962 16.1328 20.2785 14.6158L19.3255 14.3128ZM11 21.5C12.5601 21.5 13.7708 21.5007 14.7409 21.3935C15.7233 21.2849 16.5072 21.0616 17.2025 20.5841L16.6364 19.7598C16.126 20.1103 15.5213 20.3011 14.6311 20.3995C13.7285 20.4993 12.5823 20.5 11 20.5V21.5ZM16.8895 19.5718C16.8074 19.6377 16.723 19.7003 16.6364 19.7598L17.2025 20.5841C17.3094 20.5107 17.4136 20.4334 17.5149 20.3522L16.8895 19.5718ZM16.1418 4.29074C17.4217 5.24108 18.3493 5.93065 19.0227 6.55418C19.6873 7.16944 20.0691 7.68938 20.2819 8.28368L21.2234 7.94656C20.9369 7.14664 20.4335 6.49753 19.7021 5.82038C18.9796 5.15148 18.0004 4.42525 16.738 3.48787L16.1418 4.29074ZM20.2785 14.6158C20.7608 13.0987 21.1349 11.924 21.3345 10.95C21.5364 9.96471 21.5704 9.13893 21.3423 8.32057L20.379 8.58905C20.5489 9.19856 20.539 9.8503 20.3549 10.7492C20.1684 11.6594 19.8142 12.7755 19.3255 14.3128L20.2785 14.6158ZM20.2819 8.28368C20.3179 8.38421 20.3503 8.48606 20.379 8.58905L21.3423 8.32057C21.3071 8.19448 21.2675 8.06972 21.2234 7.94656L20.2819 8.28368ZM16.738 3.48787C15.4757 2.55056 14.4971 1.8231 13.6511 1.3274C12.7951 0.825807 12.0324 0.535078 11.1935 0.503626L11.156 1.50292C11.7688 1.5259 12.3676 1.73432 13.1456 2.1902C13.9337 2.65197 14.8619 3.34031 16.1418 4.29074L16.738 3.48787ZM5.85816 4.29074C7.13814 3.34031 8.06633 2.65197 8.85441 2.1902C9.63245 1.73432 10.2312 1.5259 10.844 1.50292L10.8065 0.503626C9.96762 0.535078 9.20491 0.825807 8.34887 1.3274C7.50287 1.8231 6.52433 2.55056 5.262 3.48787L5.85816 4.29074ZM11.1935 0.503626C11.0645 0.498791 10.9355 0.498791 10.8065 0.503626L10.844 1.50292C10.948 1.49903 11.052 1.49903 11.156 1.50292L11.1935 0.503626ZM9.09338 16.9129H12.9066V15.9129H9.09338V16.9129Z" fill="#828282"/>
</svg>
