<svg width="40" height="40" viewBox="0 0 40 40" fill="none" xmlns="http://www.w3.org/2000/svg">
<g clip-path="url(#clip0_816_6141)">
<path d="M38.1432 2.40953L39.8697 0H20.1245L21.8512 2.40953C22.7765 3.70086 23.2747 5.24734 23.2961 6.81977H36.6976C36.719 5.2493 37.2172 3.70172 38.1432 2.40953ZM34.9734 32.0535L29.9966 29.7077L25.0203 32.0535L20.3972 29.027C20.8423 30.847 21.6476 32.5781 22.792 34.1297L24.4278 36.3475H35.5665L37.2022 34.1297C38.2871 32.6589 39.0677 31.0062 39.5247 29.2709L34.9734 32.0535Z" fill="#B54708"/>
<path d="M25.7171 23.2546C23.9584 25.3554 21.904 26.0765 20.482 26.3112L25.0204 29.3663L29.9967 27.0205L34.9735 29.3663L39.985 26.2525C40.0375 25.0964 39.9493 23.9382 39.7226 22.8034L38.6041 17.2165H27.5613C27.6064 18.9252 27.3192 21.3412 25.7171 23.2546ZM26.6933 11.3814L27.2889 14.8707H38.1344L36.9923 9.16602H23.0068L22.2013 13.3256C22.6497 13.2022 26.6933 11.3814 26.6933 11.3814Z" fill="#B54708"/>
<path d="M19.9626 24.1021C21.0381 23.959 22.6047 23.4422 23.9801 21.7995C25.8879 19.5208 24.9543 14.6572 24.9543 14.6572L23.9053 15.133C23.8884 15.1407 22.1883 15.8989 20.131 15.8678C19.0688 15.8489 18.0575 16.2502 17.2998 17.0079C15.8862 18.4214 16.089 20.0761 16.0855 20.225L19.9626 24.1021ZM12.1101 24.3137L14.4818 21.9422L18.0536 25.5141L15.6822 27.8857L12.1101 24.3137ZM10.4553 25.9735L0.740288 35.6885C0.263179 36.1656 0.000366211 36.8 0.000366211 37.4747C0.000444336 38.1495 0.263179 38.7839 0.740366 39.261C1.23279 39.7535 1.87974 39.9996 2.52662 39.9996C3.17349 39.9996 3.82037 39.7535 4.31287 39.261L14.0278 29.5461L10.4553 25.9735Z" fill="#B54708"/>
</g>
<defs>
<clipPath id="clip0_816_6141">
<rect width="40" height="40" fill="white"/>
</clipPath>
</defs>
</svg>
