<svg width="24" height="24" viewBox="0 0 24 24" fill="none" xmlns="http://www.w3.org/2000/svg">
<g clip-path="url(#clip0_816_8857)">
<path d="M18.3974 24H5.60239C4.96587 24 4.35542 23.7472 3.90534 23.2971C3.45525 22.847 3.20239 22.2365 3.20239 21.6V13.5975C3.20239 12.961 3.45525 12.3505 3.90534 11.9005C4.35542 11.4504 4.96587 11.1975 5.60239 11.1975H18.3974C19.0339 11.1975 19.6444 11.4504 20.0944 11.9005C20.5445 12.3505 20.7974 12.961 20.7974 13.5975V21.6C20.7974 22.2365 20.5445 22.847 20.0944 23.2971C19.6444 23.7472 19.0339 24 18.3974 24ZM5.60239 12.8025C5.39085 12.8025 5.18786 12.886 5.03757 13.0349C4.88729 13.1838 4.80187 13.386 4.79989 13.5975V21.6C4.79989 21.8128 4.88444 22.017 5.03494 22.1675C5.18544 22.318 5.38956 22.4025 5.60239 22.4025H18.3974C18.6102 22.4025 18.8143 22.318 18.9648 22.1675C19.1153 22.017 19.1999 21.8128 19.1999 21.6V13.5975C19.1999 13.3847 19.1153 13.1806 18.9648 13.0301C18.8143 12.8796 18.6102 12.795 18.3974 12.795L5.60239 12.8025Z" fill="#949494"/>
<path d="M11.9999 19.2151C11.787 19.2151 11.5829 19.1305 11.4324 18.98C11.2819 18.8295 11.1974 18.6254 11.1974 18.4126V16.7851C11.2166 16.5866 11.3091 16.4024 11.4568 16.2684C11.6044 16.1343 11.7967 16.0601 11.9961 16.0601C12.1955 16.0601 12.3878 16.1343 12.5355 16.2684C12.6831 16.4024 12.7756 16.5866 12.7949 16.7851V18.4126C12.7949 18.6241 12.7114 18.8271 12.5625 18.9774C12.4136 19.1277 12.2114 19.2131 11.9999 19.2151ZM16.7999 9.60009C16.6945 9.60009 16.5901 9.57933 16.4928 9.539C16.3954 9.49867 16.3069 9.43956 16.2324 9.36504C16.1579 9.29052 16.0988 9.20205 16.0585 9.10469C16.0181 9.00733 15.9974 8.90297 15.9974 8.79759V5.59509C15.9974 4.53488 15.5762 3.51811 14.8265 2.76843C14.0769 2.01875 13.0601 1.59759 11.9999 1.59759C10.9397 1.59759 9.92289 2.01875 9.17321 2.76843C8.42354 3.51811 8.00237 4.53488 8.00237 5.59509V8.79759C8.01318 8.90899 8.00057 9.02141 7.96534 9.12764C7.93012 9.23388 7.87306 9.33157 7.79784 9.41444C7.72262 9.49731 7.6309 9.56353 7.52856 9.60885C7.42623 9.65417 7.31554 9.67758 7.20362 9.67758C7.0917 9.67758 6.98102 9.65417 6.87869 9.60885C6.77635 9.56353 6.68463 9.49731 6.6094 9.41444C6.53418 9.33157 6.47713 9.23388 6.4419 9.12764C6.40668 9.02141 6.39407 8.90899 6.40487 8.79759V5.59509C6.40487 4.11021 6.99474 2.68614 8.04471 1.63617C9.09468 0.586204 10.5187 -0.00366211 12.0036 -0.00366211C13.4885 -0.00366211 14.9126 0.586204 15.9625 1.63617C17.0125 2.68614 17.6024 4.11021 17.6024 5.59509V8.79759C17.6024 8.90297 17.5816 9.00733 17.5413 9.10469C17.501 9.20205 17.4418 9.29052 17.3673 9.36504C17.2928 9.43956 17.2043 9.49867 17.107 9.539C17.0096 9.57933 16.9053 9.60009 16.7999 9.60009Z" fill="#949494"/>
</g>
<defs>
<clipPath id="clip0_816_8857">
<rect width="24" height="24" fill="white"/>
</clipPath>
</defs>
</svg>
