<svg width="20" height="22" viewBox="0 0 20 22" fill="none" xmlns="http://www.w3.org/2000/svg">
<path d="M13.4286 6.71436C12.9572 6.71436 12.5714 6.32864 12.5714 5.85721V5.00007C12.5714 3.57721 11.4229 2.42864 10 2.42864C8.57715 2.42864 7.42858 3.57721 7.42858 5.00007V5.85721C7.42858 6.32864 7.04287 6.71436 6.57144 6.71436C6.10001 6.71436 5.71429 6.32864 5.71429 5.85721V5.00007C5.71429 2.63436 7.63429 0.714355 10 0.714355C12.3657 0.714355 14.2857 2.63436 14.2857 5.00007V5.85721C14.2857 6.32864 13.9 6.71436 13.4286 6.71436ZM10 13.5715C7.63429 13.5715 5.71429 11.6515 5.71429 9.28578C5.71429 8.81436 6.10001 8.42864 6.57144 8.42864C7.04287 8.42864 7.42858 8.81436 7.42858 9.28578C7.42858 10.7086 8.57715 11.8572 10 11.8572C11.4229 11.8572 12.5714 10.7086 12.5714 9.28578C12.5714 8.81436 12.9572 8.42864 13.4286 8.42864C13.9 8.42864 14.2857 8.81436 14.2857 9.28578C14.2857 11.6515 12.3657 13.5715 10 13.5715Z" fill="#828282"/>
<path d="M14.2857 21.2858H5.71427C2.87713 21.2858 0.571411 18.98 0.571411 16.1429L1.43713 7.48576C1.45351 6.81829 1.7312 6.1839 2.21047 5.71906C2.68975 5.25421 3.33232 4.99603 3.99998 5.00005H16C17.4228 5.00005 18.5714 6.14862 18.5714 7.57148L19.4286 16.0572C19.4628 18.9115 17.1828 21.2515 14.3371 21.2858H14.2857ZM3.99998 6.71433C3.52855 6.71433 3.14284 7.10005 3.14284 7.57148L2.2857 16.2286C2.30611 17.1236 2.67656 17.975 3.31756 18.6C3.95856 19.2249 4.81902 19.5737 5.71427 19.5715H14.2857C16.18 19.5715 17.7143 18.0372 17.7143 16.1429L16.8571 7.65719C16.8914 7.16862 16.5143 6.74862 16.0257 6.71433H16H3.99998Z" fill="#828282"/>
</svg>
