<svg width="40" height="40" viewBox="0 0 40 40" fill="none" xmlns="http://www.w3.org/2000/svg">
<path d="M25.8725 5.95996C25.3406 8.73559 22.905 10.8118 20.0038 10.8118C17.1025 10.8118 14.66 8.73559 14.1281 5.95996L8.82376 7.68184L2.71313 15.3175L6.79001 19.3881L9.15126 16.7868C9.2359 16.6929 9.34704 16.627 9.47 16.5976C9.59295 16.5682 9.72192 16.5769 9.83984 16.6224C9.95777 16.6679 10.0591 16.7482 10.1304 16.8525C10.2018 16.9569 10.2398 17.0804 10.2394 17.2068V34.5531H29.7625V17.2068C29.7624 17.0806 29.8006 16.9573 29.872 16.8531C29.9434 16.749 30.0447 16.6689 30.1624 16.6235C30.2802 16.578 30.409 16.5693 30.5319 16.5984C30.6547 16.6276 30.7659 16.6933 30.8506 16.7868L33.2119 19.3881L37.2888 15.3175L31.1781 7.68184L25.8738 5.95996H25.8725ZM25.2113 19.8712C23.755 21.3275 21.6638 21.6825 20.6256 21.7687V25.3375C20.6256 25.5032 20.5598 25.6622 20.4426 25.7794C20.3254 25.8966 20.1664 25.9625 20.0006 25.9625C19.8349 25.9625 19.6759 25.8966 19.5587 25.7794C19.4415 25.6622 19.3756 25.5032 19.3756 25.3375V21.7687C18.3369 21.6825 16.2456 21.3275 14.79 19.8712C12.8269 17.9081 12.8619 14.7837 12.8638 14.6512C12.8668 14.4896 12.9324 14.3354 13.0467 14.221C13.161 14.1067 13.3152 14.0411 13.4769 14.0381C13.61 14.0381 16.7331 14 18.6969 15.9637C19.3019 16.5687 19.7156 17.2837 20.0006 17.9875C20.2856 17.2837 20.6994 16.5687 21.3044 15.9637C23.2675 14.0006 26.3913 14.0406 26.5244 14.0381C26.686 14.0411 26.8402 14.1067 26.9546 14.221C27.0689 14.3354 27.1345 14.4896 27.1375 14.6512C27.14 14.7837 27.1744 17.9081 25.2113 19.8712Z" fill="#228B22"/>
<path d="M15.3225 5.57199C15.6806 7.84449 17.6519 9.56199 20.0037 9.56199C22.3556 9.56199 24.3194 7.84449 24.6775 5.57199L24.2956 5.44824H15.7037L15.3219 5.57199H15.3225ZM20.6662 20.5082C21.5725 20.4145 23.2231 20.0914 24.3269 18.987C25.4306 17.8826 25.7537 16.232 25.8481 15.3264C24.9419 15.4201 23.2912 15.7432 22.1875 16.8476C21.0837 17.952 20.7606 19.6026 20.6662 20.5082ZM14.1519 15.3251C14.2456 16.2307 14.5687 17.8832 15.6731 18.9876C16.7775 20.092 18.4306 20.4182 19.3337 20.5107C19.24 19.6051 18.9169 17.9526 17.8125 16.8482C16.7081 15.7439 15.055 15.4176 14.1519 15.3251Z" fill="#228B22"/>
</svg>
