<svg width="24" height="24" viewBox="0 0 24 24" fill="none" xmlns="http://www.w3.org/2000/svg">
<path d="M10.4888 0.495117H15.6312L17.8563 5.97218L18.8699 5.50429L16.5954 9.57769L12.3677 8.42172L13.505 7.7887L11.8238 4.4309L8.93122 8.69695L5.14858 5.55934L8.93122 0.495117H10.4888ZM3.26962 20.4492C2.30542 18.8529 0.401733 15.7153 0.401733 15.7153L3.22017 10.596L2.30542 9.90796L6.60724 9.7153L8.11536 14.2566L7.02754 13.5685L5.46998 17.0089L10.2415 17.2566V22.2933H4.35744L3.26962 20.4492ZM22.974 17.119C22.257 18.8804 20.8725 22.3208 20.8725 22.3208H15.4829L15.4334 23.5318L13.0353 19.5685L15.7054 15.7428L15.7548 17.1465L19.2161 16.8162L16.8921 12.1648L21.0208 9.60521L23.6168 15.5226L22.974 17.119Z" fill="#FAFAFC"/>
<path d="M11.9722 8.47706C11.9969 8.66972 12.1205 8.80734 12.2689 8.86239L16.4965 10.0183H16.5954C16.719 10.0183 16.8674 9.93578 16.9415 9.79817L19.2161 5.72477C19.315 5.55963 19.2902 5.33945 19.1913 5.20183C19.0677 5.06422 18.8947 5.00917 18.7463 5.06422L18.0788 5.36697L16.0268 0.275229C15.9526 0.110092 15.829 0 15.6559 0H8.93124C8.80762 0 8.70873 0.0550458 8.63456 0.165138L4.85192 5.2844C4.77775 5.36697 4.75303 5.50459 4.75303 5.61468C4.77775 5.72477 4.8272 5.83486 4.90136 5.91743L8.68401 9.05505C8.85707 9.19266 9.1043 9.16514 9.25264 8.97248L11.7497 5.25688L12.9364 7.62385L12.1947 8.0367C12.0464 8.11927 11.9475 8.2844 11.9722 8.47706ZM8.85707 8.09174L5.71723 5.50459L9.1043 0.963303H9.64821L11.3294 4.43119L8.85707 8.09174ZM12.1452 4.23853L10.563 0.93578H15.3593L17.4607 6.13761C17.5349 6.33028 17.708 6.41284 17.881 6.38532L16.3976 9.05505L13.505 8.2844L13.6534 8.20183C13.7523 8.14679 13.8264 8.06422 13.8511 7.92661C13.8759 7.81651 13.8759 7.6789 13.8264 7.56881L12.1452 4.23853ZM4.03605 22.5688C4.11022 22.7064 4.23384 22.7615 4.38218 22.7615H10.2663C10.4888 22.7615 10.6619 22.5688 10.6619 22.3211V17.2844C10.6619 17.0367 10.4888 16.844 10.291 16.844L6.13752 16.6239L7.22534 14.2018L7.96704 14.6697C8.11537 14.7523 8.28844 14.7523 8.41205 14.6147C8.53567 14.5046 8.58511 14.2844 8.53567 14.1193L7.02756 9.57798C6.97811 9.38532 6.82977 9.27523 6.63199 9.27523L2.33016 9.46789C2.15709 9.46789 2.00876 9.6055 1.95931 9.79817C1.90986 9.99083 1.98403 10.1835 2.10765 10.2936L2.701 10.7339L0.0556271 15.4954C-0.0185424 15.633 -0.0185424 15.8257 0.0556271 15.9908L2.92351 20.7248L4.03605 22.5688ZM9.84599 17.7248V21.9083H4.57996L4.06078 21.0275L5.71723 17.5321L9.84599 17.7248ZM3.56631 10.844C3.66521 10.6789 3.64048 10.4587 3.51687 10.3211L6.33531 10.211L7.37368 13.3211L7.22534 13.2385C7.12645 13.1835 7.02756 13.156 6.90394 13.211C6.80505 13.2385 6.70615 13.3211 6.65671 13.4312L5.09915 16.8716L3.54159 20.1743L0.871491 15.7156L3.56631 10.844ZM21.367 9.41284C21.3175 9.30275 21.2434 9.22018 21.1198 9.19266C21.0209 9.16514 20.8972 9.16514 20.7984 9.22018L16.6696 11.7798C16.4718 11.8899 16.3976 12.1651 16.5212 12.3853L18.5485 16.4312L16.1257 16.6789L16.101 15.7431C16.101 15.5505 15.9773 15.3853 15.829 15.3303C15.6807 15.2752 15.4829 15.3303 15.384 15.4679L12.7139 19.3211C12.615 19.4862 12.5903 19.6789 12.6892 19.844L15.0873 23.8073C15.1615 23.945 15.2851 24 15.4087 24C15.4334 24 15.4829 24 15.5076 23.9725C15.6807 23.9174 15.7796 23.7523 15.8043 23.5596L15.829 22.7615H20.8478C20.9961 22.7615 21.1445 22.6514 21.2186 22.4862L23.9629 15.6881C24.0124 15.578 24.0124 15.4404 23.9629 15.3028L21.367 9.41284ZM17.4113 12.3578L20.8231 10.2385L23.1471 15.5505L22.9245 16.1009L19.4139 16.3761L17.4113 12.3578ZM20.6006 21.8807H15.4582C15.2851 21.8807 15.1368 22.0183 15.0873 22.1835L13.5297 19.5963L15.3593 16.9817V17.1743C15.3593 17.2844 15.4087 17.422 15.4829 17.4771C15.557 17.5596 15.6807 17.5872 15.7796 17.5872L19.2408 17.2569L22.5784 17.0092L20.6006 21.8807Z" fill="#FAFAFC"/>
</svg>
