<svg width="40" height="40" viewBox="0 0 40 40" fill="none" xmlns="http://www.w3.org/2000/svg">
<path d="M25.12 31.3334L24.42 38.3134C24.3919 38.5928 24.2611 38.8518 24.053 39.0403C23.8448 39.2287 23.5741 39.3332 23.2933 39.3334H16.7067C16.4259 39.3332 16.1552 39.2287 15.947 39.0403C15.7389 38.8518 15.6081 38.5928 15.58 38.3134L14.88 31.3334L15.3333 30.6667H24.6667L25.12 31.3334Z" fill="#3C626B"/>
<path d="M25.3267 29.2467L25.12 31.3333H14.88L14.6733 29.2467C14.6575 29.0892 14.6749 28.9301 14.7243 28.7797C14.7737 28.6293 14.854 28.4909 14.9602 28.3734C15.0663 28.256 15.1959 28.1621 15.3405 28.0978C15.4852 28.0334 15.6417 28.0001 15.8 28H24.2C24.3583 28.0001 24.5148 28.0334 24.6595 28.0978C24.8041 28.1621 24.9337 28.256 25.0399 28.3734C25.146 28.4909 25.2264 28.6293 25.2758 28.7797C25.3252 28.9301 25.3425 29.0892 25.3267 29.2467Z" fill="#315359"/>
<path d="M39.1207 31.3334L38.4207 38.3134C38.3926 38.5928 38.2618 38.8518 38.0537 39.0403C37.8455 39.2287 37.5748 39.3332 37.294 39.3334H30.7073C30.4266 39.3332 30.1559 39.2287 29.9477 39.0403C29.7395 38.8518 29.6088 38.5928 29.5807 38.3134L28.8807 31.3334L29.3333 30.6667H38.6667L39.1207 31.3334Z" fill="#3C626B"/>
<path d="M39.3273 29.2467L39.1207 31.3333H28.8807L28.674 29.2467C28.6582 29.0892 28.6755 28.9302 28.7249 28.7798C28.7742 28.6295 28.8545 28.4911 28.9606 28.3737C29.0667 28.2562 29.1962 28.1623 29.3407 28.098C29.4853 28.0336 29.6418 28.0002 29.8 28H38.2C38.3584 28 38.515 28.0333 38.6597 28.0976C38.8044 28.1618 38.9341 28.2557 39.0403 28.3732C39.1465 28.4906 39.2269 28.6291 39.2764 28.7795C39.3258 28.93 39.3432 29.0891 39.3273 29.2467Z" fill="#315359"/>
<path d="M11.1207 31.3334L10.4207 38.3134C10.3926 38.5928 10.2618 38.8518 10.0537 39.0403C9.8455 39.2287 9.5748 39.3332 9.29401 39.3334H2.70734C2.42656 39.3332 2.15586 39.2287 1.9477 39.0403C1.73954 38.8518 1.60876 38.5928 1.58068 38.3134L0.880676 31.3334L1.33334 30.6667H10.6667L11.1207 31.3334Z" fill="#3C626B"/>
<path d="M11.3273 29.2467L11.1207 31.3333H0.880683L0.674016 29.2467C0.658191 29.0892 0.675516 28.9302 0.724877 28.7798C0.774238 28.6295 0.85454 28.4911 0.960612 28.3737C1.06668 28.2562 1.19617 28.1623 1.34075 28.098C1.48532 28.0336 1.64177 28.0002 1.80002 28H10.2C10.3584 28 10.515 28.0333 10.6597 28.0976C10.8044 28.1618 10.9341 28.2557 11.0403 28.3732C11.1465 28.4906 11.2269 28.6291 11.2764 28.7795C11.3258 28.93 11.3432 29.0891 11.3273 29.2467Z" fill="#315359"/>
<path d="M11.6533 16.0002H16.6667C16.8435 16.0002 17.013 16.0704 17.1381 16.1955C17.2631 16.3205 17.3333 16.4901 17.3333 16.6669V18.0002C17.3333 18.177 17.2631 18.3466 17.1381 18.4716C17.013 18.5966 16.8435 18.6669 16.6667 18.6669H12.6667C11.9594 18.6669 11.2811 18.3859 10.781 17.8858C10.281 17.3857 10 16.7075 10 16.0002V14.3469L11.6533 16.0002ZM19.3147 2.41887L17.0667 6.73954C17.0253 6.81913 16.9683 6.88955 16.8991 6.9466C16.8299 7.00364 16.7499 7.04613 16.6639 7.07153C16.5778 7.09693 16.4876 7.1047 16.3985 7.09439C16.3094 7.08409 16.2233 7.05591 16.1453 7.01154L15.0027 6.36154C14.8518 6.27523 14.7406 6.13339 14.6927 5.96626C14.6449 5.79914 14.6643 5.61994 14.7467 5.46687L16.4667 2.28021C17.2667 0.84554 18.628 0.314207 19.9773 0.90354L21.4927 1.56487L19.3147 2.41887ZM27.8933 16.0002L25.1133 11.8255C25.064 11.7535 25.0295 11.6724 25.0118 11.5869C24.9942 11.5014 24.9937 11.4132 25.0105 11.3275C25.0272 11.2418 25.0609 11.1603 25.1094 11.0878C25.158 11.0152 25.2205 10.953 25.2933 10.9049L26.4067 10.1649C26.4787 10.1156 26.5597 10.0811 26.6452 10.0634C26.7306 10.0458 26.8188 10.0453 26.9044 10.0621C26.99 10.0788 27.0715 10.1124 27.144 10.161C27.2165 10.2096 27.2786 10.2721 27.3267 10.3449L29.5533 13.6729C29.9449 14.2622 30.0869 14.9827 29.9482 15.6765C29.8095 16.3702 29.4014 16.9808 28.8133 17.3742L27.44 18.2949L27.8933 16.0002Z" fill="#46BC65"/>
<path d="M25.6153 5.10415L24.982 7.90415C24.9646 7.98875 24.9305 8.06901 24.8817 8.14021C24.8328 8.21142 24.7702 8.27211 24.6975 8.31871C24.6248 8.36532 24.5435 8.39688 24.4584 8.41156C24.3733 8.42623 24.2861 8.42371 24.202 8.40415L21.3887 7.81082C21.2611 7.78325 21.1446 7.71852 21.0538 7.6248C20.9629 7.53107 20.9019 7.41256 20.8784 7.2842C20.8549 7.15584 20.8699 7.02338 20.9215 6.90354C20.9732 6.7837 21.0592 6.68184 21.1687 6.61082L21.762 6.23082L19.3153 2.41748C19.3972 2.2149 19.5195 2.03114 19.6748 1.87741C19.8301 1.72368 20.0151 1.60321 20.2184 1.52335C20.4218 1.44349 20.6394 1.40592 20.8577 1.41294C21.0761 1.41995 21.2908 1.4714 21.4887 1.56415C21.8931 1.74086 22.2363 2.03308 22.4753 2.40415L24.0087 4.79748L24.6153 4.40415C24.7253 4.33255 24.8542 4.29548 24.9854 4.29769C25.1166 4.29989 25.2441 4.34128 25.3516 4.41654C25.4592 4.49179 25.5417 4.59747 25.5887 4.72C25.6357 4.84253 25.6449 4.97631 25.6153 5.10415ZM14.7053 12.7041L14.1187 12.3108L11.6533 16.0001C11.4344 16.0067 11.2165 15.9684 11.0129 15.8876C10.8094 15.8069 10.6245 15.6853 10.4697 15.5305C10.3148 15.3756 10.1933 15.1907 10.1125 14.9872C10.0317 14.7836 9.99343 14.5657 9.99999 14.3468C9.99854 13.9077 10.1286 13.4781 10.3733 13.1135L11.9067 10.8241L11.3067 10.4241C11.1969 10.3525 11.1112 10.2496 11.0605 10.1288C11.0099 10.0079 10.9966 9.87465 11.0224 9.74618C11.0483 9.61771 11.112 9.49994 11.2055 9.40807C11.2989 9.3162 11.4178 9.25446 11.5467 9.23082L14.3667 8.69082C14.4512 8.67287 14.5385 8.67196 14.6234 8.68815C14.7083 8.70434 14.7891 8.7373 14.8611 8.7851C14.9331 8.8329 14.9949 8.89458 15.0428 8.96653C15.0906 9.03849 15.1237 9.11927 15.14 9.20415L15.72 12.0175C15.7445 12.1455 15.731 12.278 15.681 12.3984C15.6311 12.5189 15.5469 12.622 15.4389 12.6951C15.3309 12.7682 15.2038 12.808 15.0735 12.8096C14.9431 12.8112 14.8151 12.7745 14.7053 12.7041ZM27.44 18.2968C27.074 18.5387 26.6453 18.6685 26.2067 18.6701H23.3333V19.3368C23.334 19.4676 23.2956 19.5957 23.2232 19.7046C23.1508 19.8136 23.0476 19.8985 22.9267 19.9485C22.8059 19.9986 22.6728 20.0115 22.5446 19.9857C22.4163 19.9599 22.2987 19.8964 22.2067 19.8035L20.1933 17.8088C20.1316 17.7485 20.0826 17.6764 20.0491 17.5968C20.0156 17.5173 19.9983 17.4318 19.9983 17.3455C19.9983 17.2592 20.0156 17.1737 20.0491 17.0941C20.0826 17.0146 20.1316 16.9425 20.1933 16.8821L22.2 14.8668C22.292 14.7739 22.4095 14.7104 22.5376 14.6841C22.6657 14.6578 22.7987 14.6701 22.9199 14.7192C23.0411 14.7684 23.145 14.8524 23.2185 14.9605C23.2921 15.0686 23.332 15.1961 23.3333 15.3268V16.0001H27.8933C28.0206 16.1786 28.1101 16.3812 28.1563 16.5955C28.2025 16.8097 28.2044 17.0312 28.1619 17.2462C28.1195 17.4613 28.0336 17.6654 27.9094 17.8461C27.7853 18.0267 27.6255 18.1801 27.44 18.2968Z" fill="#4FD879"/>
<path d="M15.8 27.3335C15.5485 27.3335 15.2999 27.3863 15.07 27.4883C14.8402 27.5903 14.6343 27.7394 14.4656 27.9259C14.2969 28.1124 14.1691 28.3321 14.0905 28.571C14.0119 28.8099 13.9843 29.0626 14.0093 29.3128L14.9153 38.3795C14.9588 38.8242 15.1665 39.2366 15.4979 39.5364C15.8293 39.8361 16.2605 40.0014 16.7073 40.0001H23.2927C23.7396 40.0014 24.1709 39.8359 24.5023 39.5361C24.8337 39.2363 25.0414 38.8236 25.0847 38.3788L25.9907 29.3121C26.0156 29.062 25.9879 28.8093 25.9093 28.5705C25.8307 28.3317 25.7029 28.1121 25.5342 27.9256C25.3655 27.7392 25.1596 27.5902 24.9298 27.4882C24.7 27.3862 24.4514 27.3335 24.2 27.3335H15.8ZM23.2927 38.6668H16.7073C16.5912 38.6674 16.4789 38.6246 16.3926 38.5468C16.3063 38.469 16.2521 38.3618 16.2407 38.2461L15.618 32.0001H24.382L23.758 38.2461C23.7466 38.3615 23.6926 38.4685 23.6066 38.5463C23.5205 38.6241 23.4086 38.667 23.2927 38.6668ZM24.6667 29.1801L24.5153 30.6668H15.4847L15.3333 29.1801C15.3268 29.115 15.334 29.0493 15.3545 28.9872C15.375 28.9251 15.4084 28.8679 15.4524 28.8195C15.4964 28.7711 15.5501 28.7325 15.61 28.7062C15.6698 28.6799 15.7346 28.6665 15.8 28.6668H24.2C24.2654 28.6665 24.3302 28.6799 24.3901 28.7062C24.45 28.7325 24.5037 28.7711 24.5477 28.8195C24.5917 28.8679 24.625 28.9251 24.6455 28.9872C24.666 29.0493 24.6732 29.115 24.6667 29.1801ZM30.7073 40.0001H37.2927C37.7396 40.0014 38.1709 39.8359 38.5023 39.5361C38.8337 39.2363 39.0414 38.8236 39.0847 38.3788L39.9907 29.3121C40.0156 29.062 39.9879 28.8093 39.9093 28.5705C39.8307 28.3317 39.7029 28.1121 39.5342 27.9256C39.3655 27.7392 39.1596 27.5902 38.9298 27.4882C38.7 27.3862 38.4514 27.3335 38.2 27.3335H29.8C29.5485 27.3335 29.2999 27.3863 29.07 27.4883C28.8402 27.5903 28.6343 27.7394 28.4656 27.9259C28.2969 28.1124 28.1691 28.3321 28.0905 28.571C28.0119 28.8099 27.9843 29.0626 28.0093 29.3128L28.9153 38.3795C28.9588 38.8242 29.1665 39.2366 29.4979 39.5364C29.8293 39.8361 30.2605 40.0014 30.7073 40.0001ZM37.2927 38.6668H30.7073C30.5912 38.6674 30.4789 38.6246 30.3926 38.5468C30.3063 38.469 30.2521 38.3618 30.2407 38.2461L29.618 32.0001H38.382L37.758 38.2461C37.7466 38.3615 37.6926 38.4685 37.6066 38.5463C37.5205 38.6241 37.4086 38.667 37.2927 38.6668ZM29.454 28.8201C29.4978 28.7718 29.5512 28.7332 29.6108 28.7068C29.6704 28.6804 29.7348 28.6668 29.8 28.6668H38.2C38.2654 28.6665 38.3302 28.6799 38.3901 28.7062C38.45 28.7325 38.5037 28.7711 38.5477 28.8195C38.5917 28.8679 38.625 28.9251 38.6455 28.9872C38.666 29.0493 38.6732 29.115 38.6667 29.1801L38.5153 30.6668H29.4847L29.3333 29.1801C29.3271 29.115 29.3346 29.0493 29.3554 28.9873C29.3762 28.9253 29.4098 28.8683 29.454 28.8201ZM0.466675 27.9261C0.29816 28.1127 0.170581 28.3324 0.0921579 28.5712C0.0137344 28.8101 -0.0137953 29.0627 0.0113417 29.3128L0.484675 34.0668C0.502356 34.2427 0.5892 34.4044 0.726101 34.5163C0.863003 34.6282 1.03875 34.6811 1.21468 34.6635C1.3906 34.6458 1.5523 34.5589 1.6642 34.422C1.77609 34.2851 1.82902 34.1094 1.81134 33.9335L1.61801 32.0001H10.382L9.75801 38.2461C9.74656 38.3618 9.69238 38.469 9.60607 38.5468C9.51976 38.6246 9.40754 38.6674 9.29134 38.6668H2.70734C2.59115 38.6674 2.47892 38.6246 2.39261 38.5468C2.30631 38.469 2.25213 38.3618 2.24068 38.2461L2.07801 36.6001C2.06925 36.513 2.04343 36.4285 2.002 36.3514C1.96058 36.2742 1.90437 36.206 1.83658 36.1506C1.7688 36.0952 1.69076 36.0537 1.60693 36.0284C1.5231 36.0032 1.43512 35.9947 1.34801 36.0035C1.2609 36.0122 1.17637 36.038 1.09924 36.0795C1.02211 36.1209 0.953893 36.1771 0.898487 36.2449C0.843082 36.3127 0.80157 36.3907 0.776323 36.4745C0.751076 36.5584 0.742587 36.6463 0.751342 36.7335L0.915342 38.3788C0.958654 38.8236 1.16631 39.2363 1.49771 39.5361C1.82911 39.8359 2.26043 40.0014 2.70734 40.0001H9.29268C9.73959 40.0014 10.1709 39.8359 10.5023 39.5361C10.8337 39.2363 11.0414 38.8236 11.0847 38.3788L11.9907 29.3121C12.0156 29.062 11.9879 28.8093 11.9093 28.5705C11.8307 28.3317 11.7029 28.1121 11.5342 27.9256C11.3655 27.7392 11.1596 27.5902 10.9298 27.4882C10.7 27.3862 10.4514 27.3335 10.2 27.3335H1.80001C1.54875 27.334 1.30037 27.387 1.07077 27.489C0.841175 27.5911 0.635418 27.74 0.466675 27.9261ZM10.546 28.8201C10.5898 28.8685 10.6229 28.9256 10.6432 28.9876C10.6635 29.0496 10.6706 29.1152 10.664 29.1801L10.5153 30.6668H1.48468L1.33334 29.1801C1.3268 29.115 1.33401 29.0493 1.35452 28.9872C1.37502 28.9251 1.40836 28.8679 1.45236 28.8195C1.49637 28.7711 1.55006 28.7325 1.60995 28.7062C1.66984 28.6799 1.73459 28.6665 1.80001 28.6668H10.2C10.2652 28.6668 10.3297 28.6804 10.3893 28.7068C10.4488 28.7332 10.5022 28.7718 10.546 28.8201ZM33.3333 25.3335C33.3333 25.5103 33.4036 25.6798 33.5286 25.8049C33.6536 25.9299 33.8232 26.0001 34 26.0001C34.1768 26.0001 34.3464 25.9299 34.4714 25.8049C34.5964 25.6798 34.6667 25.5103 34.6667 25.3335V24.0001C34.6667 23.6465 34.5262 23.3074 34.2762 23.0573C34.0261 22.8073 33.687 22.6668 33.3333 22.6668H20.6667V21.3335C20.6667 21.1566 20.5964 20.9871 20.4714 20.8621C20.3464 20.737 20.1768 20.6668 20 20.6668C19.8232 20.6668 19.6536 20.737 19.5286 20.8621C19.4036 20.9871 19.3333 21.1566 19.3333 21.3335V22.6668H6.66668C6.31305 22.6668 5.97392 22.8073 5.72387 23.0573C5.47382 23.3074 5.33334 23.6465 5.33334 24.0001V25.3335C5.33334 25.5103 5.40358 25.6798 5.5286 25.8049C5.65363 25.9299 5.8232 26.0001 6.00001 26.0001C6.17682 26.0001 6.34639 25.9299 6.47141 25.8049C6.59644 25.6798 6.66668 25.5103 6.66668 25.3335V24.0001H19.3333V25.3335C19.3333 25.5103 19.4036 25.6798 19.5286 25.8049C19.6536 25.9299 19.8232 26.0001 20 26.0001C20.1768 26.0001 20.3464 25.9299 20.4714 25.8049C20.5964 25.6798 20.6667 25.5103 20.6667 25.3335V24.0001H33.3333V25.3335ZM12.6667 19.3381H16.6667C17.0203 19.3381 17.3594 19.1976 17.6095 18.9476C17.8595 18.6975 18 18.3584 18 18.0048V16.6715C18 16.3178 17.8595 15.9787 17.6095 15.7286C17.3594 15.4786 17.0203 15.3381 16.6667 15.3381H12.9007L14.3007 13.2408L14.3327 13.2621L14.3407 13.2675C14.5607 13.4093 14.8177 13.4832 15.0795 13.4799C15.3413 13.4767 15.5963 13.3964 15.8128 13.2492C16.0292 13.1019 16.1976 12.8942 16.2968 12.652C16.396 12.4097 16.4217 12.1436 16.3707 11.8868L15.79 9.07479C15.7579 8.90401 15.692 8.74137 15.5961 8.59643C15.5003 8.45148 15.3764 8.32716 15.2318 8.23077C15.0872 8.13438 14.9248 8.06786 14.7542 8.03512C14.5835 8.00238 14.408 8.00408 14.238 8.04012L11.418 8.58012C11.1575 8.62924 10.9177 8.75546 10.7298 8.94244C10.5419 9.12942 10.4144 9.36853 10.364 9.62879C10.3126 9.8856 10.3395 10.1519 10.4411 10.3933C10.5427 10.6347 10.7144 10.84 10.934 10.9828L10.9787 11.0121L9.81801 12.7455C9.50006 13.2203 9.33128 13.7793 9.33334 14.3508V16.0048C9.3344 16.8885 9.68593 17.7358 10.3108 18.3606C10.9357 18.9855 11.7829 19.3371 12.6667 19.3381ZM16.6667 18.0048H12.6667C12.2204 18.0027 11.7877 17.8514 11.4374 17.575C11.0871 17.2986 10.8392 16.9129 10.7333 16.4795C11.0256 16.6032 11.3393 16.6685 11.6567 16.6715H16.6667V18.0048ZM10.9273 13.4881L12.4607 11.1988C12.5577 11.0513 12.5928 10.8716 12.5584 10.6984C12.5239 10.5253 12.4227 10.3726 12.2767 10.2735L11.6767 9.88945L14.4913 9.34346L15.0773 12.1515L14.4947 11.7608C14.3472 11.6641 14.1677 11.6293 13.9947 11.6637C13.8218 11.6981 13.6693 11.799 13.57 11.9448L11.3333 15.2861C11.1304 15.2334 10.9525 15.1111 10.8306 14.9405C10.7087 14.7699 10.6507 14.5618 10.6667 14.3528C10.6653 14.045 10.7561 13.7439 10.9273 13.4881ZM14.6747 6.94479L15.8173 7.59545C15.9737 7.68186 16.1457 7.73635 16.3234 7.75575C16.501 7.77515 16.6807 7.75908 16.8521 7.70847C17.0234 7.65786 17.183 7.57372 17.3216 7.46094C17.4602 7.34815 17.575 7.20896 17.6593 7.05145L19.376 3.75079L20.8427 6.03345L20.808 6.05546C20.5877 6.19827 20.4147 6.40321 20.3108 6.64437C20.207 6.88553 20.177 7.15207 20.2247 7.41026C20.2724 7.66846 20.3956 7.90672 20.5787 8.0949C20.7618 8.28308 20.9965 8.41273 21.2533 8.46745L24.0593 9.05879C24.4004 9.13111 24.7563 9.06692 25.0507 8.88C25.345 8.69307 25.5544 8.39827 25.634 8.05879L26.2667 5.24945C26.3241 4.99265 26.3037 4.72456 26.2081 4.47939C26.1125 4.23423 25.9461 4.02308 25.73 3.87289C25.5139 3.72269 25.258 3.64025 24.9949 3.63608C24.7318 3.6319 24.4734 3.70619 24.2527 3.84946L24.208 3.87812L23.036 2.04745C22.7254 1.56766 22.2815 1.18904 21.7587 0.958121L20.2427 0.296788C18.5627 -0.436546 16.8513 0.216121 15.8787 1.96812L14.16 5.15346C13.9967 5.46049 13.9591 5.81895 14.0551 6.15318C14.1512 6.48741 14.3733 6.77126 14.6747 6.94479ZM23.4473 5.16146C23.5439 5.30991 23.6951 5.41422 23.8682 5.45168C24.0412 5.48914 24.2221 5.45671 24.3713 5.36145C24.3713 5.36145 24.9647 4.95746 24.9633 4.96746L24.3393 7.75679L21.528 7.17745L22.1213 6.79745C22.2687 6.7005 22.3722 6.54966 22.4096 6.37728C22.4469 6.20491 22.4153 6.02474 22.3213 5.87545L20.1033 2.41545C20.2319 2.25137 20.414 2.13769 20.6179 2.09431C20.8218 2.05093 21.0345 2.08059 21.2187 2.17812C21.5033 2.30227 21.7452 2.50747 21.914 2.76812L23.4473 5.16146ZM17.0473 2.60812C17.2253 2.18597 17.5397 1.83566 17.9402 1.61317C18.3407 1.39069 18.8042 1.30887 19.2567 1.38079C19.0341 1.58933 18.8532 1.83817 18.7233 2.11412L16.4767 6.43479L15.3333 5.78612L17.0473 2.60812ZM24.9293 10.3528C24.6364 10.5501 24.4332 10.855 24.3638 11.2013C24.2944 11.5475 24.3644 11.9072 24.5587 12.2021L26.648 15.3401C26.648 15.3401 24 15.3401 24 15.3241C23.9975 15.0619 23.9175 14.8062 23.7701 14.5893C23.6227 14.3724 23.4144 14.204 23.1714 14.1052C22.9285 14.0065 22.6617 13.9818 22.4048 14.0342C22.1478 14.0867 21.9121 14.214 21.7273 14.4001L19.722 16.4155C19.5974 16.5374 19.4985 16.6831 19.4309 16.8438C19.3633 17.0045 19.3285 17.1771 19.3285 17.3515C19.3285 17.5258 19.3633 17.6984 19.4309 17.8591C19.4985 18.0199 19.5974 18.1655 19.722 18.2875L21.7333 20.2795C21.9185 20.4663 22.1551 20.5938 22.413 20.6458C22.6709 20.6977 22.9384 20.6717 23.1815 20.5711C23.4245 20.4705 23.6322 20.2999 23.7779 20.0809C23.9237 19.8619 24.001 19.6045 24 19.3415H26.2067C26.7776 19.3395 27.3355 19.1703 27.8113 18.8548L29.1833 17.9348C29.9167 17.4417 30.4254 16.6787 30.5985 15.8122C30.7715 14.9456 30.595 14.0457 30.1073 13.3088L27.8847 9.98612C27.6873 9.69389 27.3827 9.49118 27.037 9.42193C26.6912 9.35267 26.332 9.42244 26.0373 9.61612L24.9293 10.3528ZM23.3333 18.0081C23.1565 18.0081 22.987 18.0784 22.8619 18.2034C22.7369 18.3284 22.6667 18.498 22.6667 18.6748L22.676 19.3341L20.6667 17.3575L22.6667 15.3335V16.0068C22.6667 16.1836 22.7369 16.3532 22.8619 16.4782C22.987 16.6032 23.1565 16.6735 23.3333 16.6735H27.4747C27.5417 16.8701 27.5384 17.0838 27.4655 17.2783C27.3925 17.4728 27.2544 17.636 27.0747 17.7401L27.0687 17.7441C26.8124 17.9128 26.5128 18.0035 26.206 18.0055L23.3333 18.0081ZM29 14.0475C29.2462 14.4213 29.3606 14.8666 29.3251 15.3128C29.2896 15.759 29.1062 16.1806 28.804 16.5108C28.745 16.1985 28.6247 15.901 28.45 15.6355L25.662 11.4668L26.7727 10.7221L29 14.0475Z" fill="#262626"/>
</svg>
