<svg width="40" height="40" viewBox="0 0 40 40" fill="none" xmlns="http://www.w3.org/2000/svg">
<g clip-path="url(#clip0_816_3877)">
<path d="M11.4188 12.9914L12.5 8.12511C12.5 8.12511 8.75001 7.50011 6.87501 11.8751C3.12501 11.8751 2.50001 13.7501 2.50001 13.7501L5.07501 15.8101L11.4188 12.9914ZM5.77751 16.8664L6.09939 18.172L11.7525 16.2882L11.3744 14.3789L5.77751 16.8664ZM10 27.7376C10.0007 24.359 11.3293 21.1161 13.6994 18.7082L12.3731 17.3989L9.46439 18.3689C9.51876 19.5526 9.37814 21.667 7.99939 23.5014C7.87626 23.6651 7.60626 23.9226 7.12439 23.6257C6.99202 23.5261 6.90458 23.378 6.88126 23.214C6.85795 23.0499 6.90065 22.8833 7.00001 22.7507C8.02439 21.3882 8.22564 19.8201 8.22376 18.7826L5.82376 19.5826L1.25564 28.1695C0.437677 29.3617 -0.000272724 30.7736 -0.000610352 32.2195C-0.000610352 36.1757 3.19939 39.3757 7.15564 39.3757H8.20126C6.13564 37.3164 5.65626 34.6151 5.63314 34.4782C5.61963 34.3974 5.62216 34.3148 5.64061 34.2349C5.65905 34.1551 5.69304 34.0797 5.74063 34.013C5.78822 33.9463 5.84848 33.8897 5.91798 33.8463C5.98747 33.8029 6.06483 33.7736 6.14564 33.7601C6.30885 33.7336 6.47592 33.7725 6.61068 33.8683C6.74544 33.9641 6.83704 34.1091 6.86564 34.272C6.87126 34.3064 7.47501 37.6501 10.1875 39.3757H13.8119C14.7781 39.3757 15.7031 39.2276 16.5756 38.9539C15.5556 38.3782 14.6025 37.6764 13.7806 36.8501C11.3425 34.4264 9.99939 31.1901 9.99939 27.7389L10 27.7376ZM24.5725 12.532L29.5831 14.2032C29.5931 14.2064 29.6025 14.2089 29.6119 14.2126L32.0263 15.0176L32.3425 13.7514L25.4231 9.97698L24.5719 12.5314L24.5725 12.532ZM27.8913 9.89948L27.5081 7.60261C27.4946 7.52168 27.4972 7.43887 27.5157 7.35894C27.5342 7.279 27.5683 7.2035 27.616 7.13675C27.6638 7.07 27.7242 7.0133 27.7938 6.96991C27.8634 6.92652 27.9409 6.89728 28.0219 6.88386C28.1029 6.86992 28.1858 6.87219 28.2659 6.89053C28.346 6.90887 28.4217 6.94291 28.4885 6.9907C28.5554 7.03848 28.6121 7.09905 28.6553 7.16889C28.6986 7.23874 28.7276 7.31648 28.7406 7.39761L29.2844 10.6601L32.9413 12.6551L36.1994 9.18823C36.1994 9.18823 34.9994 6.87573 31.8744 7.50073C29.3744 3.12573 24.0369 3.12573 24.0369 3.12573L25.4144 8.54948L27.8906 9.90011L27.8913 9.89948Z" fill="#AF1F25"/>
<path d="M38.5625 25.8187L32.4288 16.4694L30.0819 15.6869C30.2306 17.15 30.6369 19.3937 31.7494 20.875C31.8487 21.0076 31.8915 21.1742 31.8681 21.3382C31.8448 21.5022 31.7574 21.6503 31.625 21.75C31.2838 21.9956 30.8725 21.7887 30.75 21.6256C29.3031 19.6987 28.9019 16.7819 28.79 15.2556L27.2644 14.7469C26.7575 15.7694 26.25 17.1825 26.25 18.75C26.25 18.9158 26.1842 19.0747 26.067 19.1919C25.9497 19.3091 25.7908 19.375 25.625 19.375C25.4593 19.375 25.3003 19.3091 25.1831 19.1919C25.0659 19.0747 25 18.9158 25 18.75C25 17.0269 25.5256 15.4887 26.0706 14.3487L23.6838 13.5525L16.7619 17.8375C16.194 18.1892 15.6585 18.5908 15.1619 19.0375C13.9313 20.1283 12.9463 21.4678 12.2718 22.9675C11.5974 24.4673 11.2489 26.0931 11.2494 27.7375C11.2494 30.95 12.5494 33.8625 14.6619 35.9625C15.8181 37.1264 17.2095 38.0299 18.7431 38.6125H18.7494C19.9394 39.0638 21.196 39.3149 22.4681 39.3556C19.5356 36.5637 19.9806 32.6137 20.0044 32.4225C20.0144 32.341 20.0403 32.2622 20.0808 32.1908C20.1213 32.1194 20.1755 32.0566 20.2404 32.0062C20.3052 31.9558 20.3793 31.9187 20.4585 31.897C20.5377 31.8754 20.6204 31.8696 20.7019 31.88C20.7833 31.89 20.8619 31.916 20.9333 31.9565C21.0046 31.997 21.0673 32.0512 21.1177 32.1159C21.1681 32.1806 21.2052 32.2547 21.227 32.3338C21.2487 32.4129 21.2546 32.4955 21.2444 32.5769C21.2206 32.7769 20.7619 37.1 24.5575 39.375H29.6706C31.22 37.0787 31.2494 33.7837 31.2494 33.7494C31.2546 33.5871 31.3227 33.4332 31.4394 33.3203C31.556 33.2074 31.712 33.1444 31.8744 33.1444C32.0367 33.1445 32.1927 33.2078 32.3092 33.3208C32.4257 33.4338 32.4937 33.5877 32.4988 33.75C32.4988 33.8925 32.48 36.8669 31.1319 39.375H31.2425C36.08 39.375 39.9988 35.4562 39.9988 30.6187C39.9988 28.9125 39.4988 27.2437 38.5613 25.8187H38.5625ZM18.7356 21.0256C16.3969 22.4725 15 24.9819 15 27.7375C15 27.9033 14.9342 28.0622 14.817 28.1794C14.6997 28.2966 14.5408 28.3625 14.375 28.3625C14.2093 28.3625 14.0503 28.2966 13.9331 28.1794C13.8159 28.0622 13.75 27.9033 13.75 27.7375C13.75 24.5462 15.3681 21.6394 18.0775 19.9625C18.1473 19.9193 18.225 19.8902 18.306 19.877C18.387 19.8638 18.4698 19.8667 18.5498 19.8855C18.6297 19.9043 18.7051 19.9387 18.7718 19.9866C18.8384 20.0346 18.8949 20.0952 18.9381 20.165C18.9814 20.2348 19.0104 20.3124 19.0236 20.3935C19.0368 20.4745 19.0339 20.5573 19.0151 20.6372C18.9963 20.7172 18.962 20.7926 18.914 20.8592C18.8661 20.9259 18.8054 20.9824 18.7356 21.0256ZM20.625 20C20.4593 20 20.3003 19.9341 20.1831 19.8169C20.0659 19.6997 20 19.5408 20 19.375C20 19.2092 20.0659 19.0503 20.1831 18.933C20.3003 18.8158 20.4593 18.75 20.625 18.75C20.7908 18.75 20.9497 18.8158 21.067 18.933C21.1842 19.0503 21.25 19.2092 21.25 19.375C21.25 19.5408 21.1842 19.6997 21.067 19.8169C20.9497 19.9341 20.7908 20 20.625 20Z" fill="#AF1F25"/>
</g>
<defs>
<clipPath id="clip0_816_3877">
<rect width="40" height="40" fill="white"/>
</clipPath>
</defs>
</svg>
