<svg width="20" height="18" viewBox="0 0 20 18" fill="none" xmlns="http://www.w3.org/2000/svg">
<path d="M4 0H16C18.2 0 20 1.8 20 4C20 5.7 19 7.1 17.5 7.7V4C17.5 3.6 17.3 3.2 17.1 2.9C16.9 2.6 16.4 2.5 16 2.5H4C3.6 2.5 3.2 2.7 2.9 2.9C2.6 3.1 2.5 3.6 2.5 4V7.7C1 7.1 0 5.7 0 4C0 1.8 1.8 0 4 0Z" fill="#AF1F25"/>
<path fill-rule="evenodd" clip-rule="evenodd" d="M16 4V16C16 17.1 15.1 18 14 18H6C4.9 18 4 17.1 4 16V4H16ZM8.5 11.5L9.2 12.2V8C9.2 7.6 9.5 7.2 10 7.2C10.5 7.2 10.8 7.5 10.8 8V12.2L11.5 11.5C11.8 11.2 12.3 11.2 12.6 11.5C12.9 11.8 12.9 12.3 12.6 12.6L11.3 13.9C10.6 14.6 9.5 14.6 8.8 13.9L7.5 12.6C7.2 12.3 7.2 11.8 7.5 11.5C7.8 11.2 8.2 11.2 8.5 11.5Z" fill="#AF1F25"/>
</svg>
