<svg width="20" height="20" viewBox="0 0 20 20" fill="none" xmlns="http://www.w3.org/2000/svg">
<path d="M19.976 11.0002L18.4637 2.42371C18.3302 1.66652 17.6718 1.13379 16.9286 1.13379C16.8387 1.13379 3.68543 3.44477 3.68543 3.44477C2.8366 3.59445 2.2698 4.40391 2.41949 5.25273L2.56527 6.07957H14.4361C15.9421 6.07957 17.1673 7.30476 17.1673 8.81074V13.0802L18.7101 12.8082C19.5589 12.6585 20.1257 11.8491 19.976 11.0002ZM15.9968 13.7307H0V17.3054C0 18.1673 0.69875 18.8661 1.56066 18.8661H14.4361C15.298 18.8661 15.9968 18.1673 15.9968 17.3054V13.7307ZM4.64637 17.46H1.99129C1.66809 17.46 1.40605 17.1979 1.40605 16.8747C1.40605 16.5515 1.66809 16.2895 1.99129 16.2895H4.64637C4.96957 16.2895 5.2316 16.5515 5.2316 16.8747C5.2316 17.1979 4.96961 17.46 4.64637 17.46Z" fill="#D23B30"/>
<path d="M0.00191406 8.73457H15.9948C15.9552 7.90797 15.2725 7.25 14.4361 7.25H1.56066C0.724258 7.25 0.0416016 7.90797 0.00191406 8.73457ZM0 9.90504H15.9968V12.5601H0V9.90504Z" fill="#D23B30"/>
</svg>
